<svg xmlns="http://www.w3.org/2000/svg" width="256" height="256"><path fill-opacity=".016" d="M0 128.004v128.004l128.25-.254 128.25-.254.254-127.75L257.008 0H0v128.004m.485.496c0 70.4.119 99.053.265 63.672.146-35.38.146-92.98 0-128C.604 29.153.485 58.1.485 128.5" fill="#fff" fill-rule="evenodd"/><path fill-opacity=".378" d="M48.229 63.25 48.5 83.5l5.25.302 5.25.303V180H48v40h70v-19c0-10.45.112-19.338.25-19.75.138-.412-2.112-.886-5-1.052l-5.25-.303v-37.35l17.534 28.977c9.643 15.938 20.106 33.357 23.25 38.71l5.716 9.732 29.75.018L214 220v-40h-11V84.105l5.25-.303 5.25-.302.271-20.263.27-20.263-35.27.263-35.271.263v40l5.25.302 5.25.303-.015 19.197c-.011 13.309-.327 18.738-1.03 17.698-.559-.825-11.376-18.713-24.04-39.75L105.891 43H47.959l.27 20.25M53 63.5V79h10v106H53v31h60v-31h-10v-29.5c0-16.225.162-29.5.361-29.5.198 0 12.46 20.236 27.25 44.969l26.889 44.969 25.75.031L209 216v-31h-11V79h11V48l-30.25-.001-30.25-.002.299 15.502.299 15.501H159l-.032 30.25c-.026 25.269-.249 29.964-1.351 28.512-.726-.956-13.197-21.544-27.712-45.75L103.513 48H53v15.5m5-.02V74h10v116H58v21.034l25.25-.267 25.25-.267.285-10.25.285-10.25H98l.001-42.75V104.5l31.8 53 31.799 53 21.2.27 21.2.27V190.105l-5.25-.303-5.25-.302-.258-57.75-.258-57.75H204V53h-51v21h11v86.442l-13.906-22.971A26744.519 26744.519 0 0 1 117.844 84L99.5 53.5l-20.75-.27L58 52.959V63.48" fill="#fff" fill-rule="evenodd"/><path fill-opacity=".385" d="M48.667 43.667c-.367.366-.667 9.366-.667 20V83h11V179.895l-5.25.303-5.25.302-.271 19.75-.271 19.75H118v-40l-5.25-.001h-5.25v-18.965c0-13.924.294-18.642 1.106-17.749.609.668 11.335 18.203 23.837 38.965L155.172 220h58.87l-.271-19.75-.271-19.75-5.25-.302-5.25-.303V83h11.042l-.271-19.75-.271-19.75-34.75-.263-34.75-.263V83h10v40.451l-24.25-40.217-24.25-40.217-28.083-.009c-15.446-.004-28.384.292-28.75.659M53 63.5V79h10v105H53v32h61.051l-.276-15.75-.275-15.75-5-.085-5-.086-.277-14.725c-.152-8.1-.152-21.111 0-28.915l.277-14.189 26.894 44.75L157.288 216H209v-32.193l-5.001.346-5 .347v-52.75L199 79h10V48h-61v31h11v29.714c0 25.147-.21 29.489-1.364 28.25-.75-.805-13.15-21.151-27.554-45.214L103.892 48H53v15.5m5-.552v9.947l5.25.303 5.25.302.258 58.25.258 58.25H58v20h51v-20H98v-42.5c0-23.375.162-42.5.359-42.5.198 0 14.485 23.611 31.75 52.468l31.391 52.469 21.25.031L204 210v-20h-11V73h11V52.966l-25.25.267-25.25.267-.286 9.75-.286 9.75H164v43.7c0 24.635-.377 43.286-.865 42.75-.475-.522-15.139-24.688-32.585-53.7L98.828 53H58v9.948" fill="#fff" fill-rule="evenodd"/><path fill-opacity=".979" d="M49 63.5V83h10v98H49v39h69v-39h-11l.032-20.25c.025-16.133.279-19.924 1.25-18.647.67.881 11.568 18.765 24.218 39.743l23 38.141 28.75.006L213 220v-39h-10V83h10V44h-69v39h11v20.5c0 11.275-.338 20.468-.75 20.428-.412-.04-11.502-18.04-24.644-40L105.713 44H49v19.5m3.667-15.833c-.367.366-.667 7.566-.667 16V79h11V183.895l-5.25.303-5.25.302-.275 15.75-.276 15.75H114v-32h-10v-27.667c0-15.216.283-27.383.629-27.037.346.346 12.181 19.883 26.301 43.416l25.671 42.788 26.725.266 26.725.267-.276-15.767-.275-15.766-5.25-.302-5.25-.303V79h11.051l-.276-15.75-.275-15.75-30.75-.264-30.75-.265V79h10l-.003 29.25-.002 29.25-27.139-45.25L103.717 47H78.525c-13.855 0-25.492.3-25.858.667m6.332 15.583L59 73h10v117H59v20h49v-20h-9.958l-.271-43c-.149-23.65-.045-43 .23-43 .276 0 14.812 23.85 32.301 53l31.8 53h41.97l-.286-9.75-.286-9.75-5.25-.302-5.25-.303V73h11V54.067l-25.001-.284-25-.283v9.75L154 73h11v44c0 24.2-.338 43.999-.75 43.999-.412-.001-15.186-23.963-32.83-53.25L99.339 54.5 79.168 54l-20.171-.5.002 9.75" fill="#fff" fill-rule="evenodd"/></svg>